<svg width="71" height="71" viewBox="0 0 71 71" fill="none" xmlns="http://www.w3.org/2000/svg">
<path d="M35.38 69.76C54.3676 69.76 69.76 54.3676 69.76 35.38C69.76 16.3925 54.3676 1 35.38 1C16.3925 1 1 16.3925 1 35.38C1 54.3676 16.3925 69.76 35.38 69.76Z" fill="#111111" stroke="white" stroke-width="2" stroke-miterlimit="10"/>
<path d="M21.2896 37.1198C17.7996 48.1298 27.7596 52.9098 32.0596 53.9298C22.9096 44.7198 26.9097 41.3798 28.2597 41.6698C29.2097 45.3098 31.1896 45.2198 32.0596 44.7198C33.8496 43.1298 32.4196 39.3698 32.0596 37.1198C31.4096 33.0398 34.0296 32.1398 35.4196 32.1998C35.0196 38.6198 41.3496 41.9698 42.4496 44.7098C43.6996 47.7998 40.6896 52.1398 39.0296 53.9198C42.5196 53.9198 49.2996 50.6198 50.1096 42.2198C50.7596 35.4998 47.7696 31.1998 46.1896 29.8898C46.1896 35.1198 44.2596 36.3598 42.3296 35.6798C38.4096 34.2898 40.7697 28.6498 40.7697 25.7798C40.7697 21.0498 34.5696 17.8498 32.0496 16.8198C32.9996 25.1398 23.2096 31.0098 21.2796 37.1198H21.2896Z" stroke="white" stroke-width="2" stroke-miterlimit="10"/>
</svg>
