<svg width="71" height="71" viewBox="0 0 71 71" fill="none" xmlns="http://www.w3.org/2000/svg">
<path d="M35.38 69.76C54.3675 69.76 69.76 54.3676 69.76 35.38C69.76 16.3925 54.3675 1 35.38 1C16.3924 1 1 16.3925 1 35.38C1 54.3676 16.3924 69.76 35.38 69.76Z" fill="#111111" stroke="white" stroke-width="2" stroke-miterlimit="10"/>
<path d="M15.74 53.8H55.03H15.74Z" fill="#111111"/>
<path d="M15.74 53.8H55.03" stroke="white" stroke-width="2" stroke-miterlimit="10"/>
<path d="M35.6804 51.5899V34.5299V51.5899Z" fill="#111111"/>
<path d="M35.6804 51.5899V34.5299" stroke="white" stroke-width="2" stroke-miterlimit="10"/>
<path d="M32.0603 34.3799C30.3003 35.6399 25.4802 37.7499 20.1102 36.3799C20.0002 36.3499 19.9802 36.1999 20.0802 36.1499L30.8702 30.4698" fill="#111111"/>
<path d="M32.0603 34.3799C30.3003 35.6399 25.4802 37.7499 20.1102 36.3799C20.0002 36.3499 19.9802 36.1999 20.0802 36.1499L30.8702 30.4698" stroke="white" stroke-width="2" stroke-miterlimit="10"/>
<path d="M33.29 24.95C33.08 22.8 33.66 17.57 37.53 13.6C37.61 13.52 37.75 13.58 37.75 13.69L37.28 25.88" fill="#111111"/>
<path d="M33.29 24.95C33.08 22.8 33.66 17.57 37.53 13.6C37.61 13.52 37.75 13.58 37.75 13.69L37.28 25.88" stroke="white" stroke-width="2" stroke-miterlimit="10"/>
<path d="M41.55 30.9301C43.41 32.0401 47.28 35.6 48.18 41.07C48.2 41.18 48.07 41.26 47.9799 41.19L38.4399 33.59" fill="#111111"/>
<path d="M41.55 30.9301C43.41 32.0401 47.28 35.6 48.18 41.07C48.2 41.18 48.0699 41.26 47.9799 41.19L38.4399 33.59" stroke="white" stroke-width="2" stroke-miterlimit="10"/>
<path d="M35.7503 32.3899C37.0979 32.3899 38.1903 31.2975 38.1903 29.9499C38.1903 28.6023 37.0979 27.5099 35.7503 27.5099C34.4027 27.5099 33.3103 28.6023 33.3103 29.9499C33.3103 31.2975 34.4027 32.3899 35.7503 32.3899Z" fill="#111111" stroke="white" stroke-width="2" stroke-miterlimit="10"/>
<path d="M48.08 28.1C48.55 29.45 49.16 32.56 47.86 34.16L48.08 28.1Z" fill="#111111"/>
<path d="M48.08 28.1C48.55 29.45 49.16 32.56 47.86 34.16" stroke="white" stroke-width="2" stroke-miterlimit="10"/>
<path d="M51.1897 27.2902C51.7597 29.2302 52.2497 33.9502 49.7097 37.2602L51.1897 27.2902Z" fill="#111111"/>
<path d="M51.1897 27.2902C51.7597 29.2302 52.2497 33.9502 49.7097 37.2602" stroke="white" stroke-width="2" stroke-miterlimit="10"/>
<path d="M27.28 19.53C28.23 18.46 30.63 16.4 32.66 16.74L27.28 19.53Z" fill="#111111"/>
<path d="M27.28 19.53C28.23 18.46 30.63 16.4 32.66 16.74" stroke="white" stroke-width="2" stroke-miterlimit="10"/>
<path d="M25.0496 17.23C26.4696 15.78 30.3296 13.03 34.4596 13.61L25.0496 17.23Z" fill="#111111"/>
<path d="M25.0496 17.23C26.4696 15.78 30.3296 13.03 34.4596 13.61" stroke="white" stroke-width="2" stroke-miterlimit="10"/>
<path d="M30.48 42.04C29.07 41.82 26.04 40.89 25.24 39L30.48 42.04Z" fill="#111111"/>
<path d="M30.48 42.04C29.07 41.82 26.04 40.89 25.24 39" stroke="white" stroke-width="2" stroke-miterlimit="10"/>
<path d="M29.7296 45.16C27.7496 44.74 23.3496 42.96 21.6296 39.17L29.7296 45.16Z" fill="#111111"/>
<path d="M29.7296 45.16C27.7496 44.74 23.3496 42.96 21.6296 39.17" stroke="white" stroke-width="2" stroke-miterlimit="10"/>
</svg>
