<svg width="76" height="76" viewBox="0 0 76 76" fill="none" xmlns="http://www.w3.org/2000/svg">
<rect x="0.5" y="0.5" width="75" height="75" rx="15.5" fill="url(#paint0_linear_1_404)"/>
<rect x="0.5" y="0.5" width="75" height="75" rx="15.5" stroke="url(#paint1_radial_1_404)"/>
<path d="M59.3746 25.6053C59.3225 24.252 59.3225 22.9507 59.3225 21.7015C59.3225 20.7125 58.5418 19.9317 57.5528 19.9317C49.9013 19.8797 44.0716 17.6936 39.2309 13.009C38.5542 12.3323 37.4091 12.3323 36.7324 13.009C31.8917 17.6936 26.062 19.8797 18.4625 19.8797C17.4735 19.8797 16.6928 20.6605 16.6928 21.6494C16.6928 22.8987 16.6928 24.1999 16.6407 25.6053C16.3805 38.4619 16.0161 56.0031 37.4091 63.3943C37.6173 63.4464 37.7734 63.4984 37.9816 63.4984C38.1898 63.4984 38.398 63.4464 38.5542 63.3943C59.9472 56.0031 59.5828 38.4619 59.3746 25.6053ZM37.9816 59.8028C19.6597 53.1403 19.9199 38.566 20.1802 25.7094C20.1802 24.9286 20.2322 24.1999 20.2322 23.4712C27.3632 23.1069 33.0888 20.9728 37.9816 16.7046C42.8744 20.9728 48.6 23.1589 55.731 23.4192C55.731 24.1479 55.731 24.8766 55.7831 25.6574C56.0433 38.566 56.3036 53.1403 37.9816 59.8028Z" fill="white"/>
<path d="M44.1237 31.7996L35.5353 40.388L31.8396 36.6924C31.163 36.0157 30.0179 36.0157 29.2891 36.6924C28.6125 37.369 28.6125 38.5141 29.2891 39.2429L34.234 44.1877C34.5983 44.5521 35.0148 44.7082 35.4832 44.7082C35.9517 44.7082 36.4201 44.5521 36.7324 44.1877L46.6221 34.298C47.2988 33.6213 47.2988 32.4762 46.6221 31.7475C45.9455 31.0708 44.8003 31.0708 44.1237 31.7996Z" fill="white"/>
<defs>
<linearGradient id="paint0_linear_1_404" x1="38" y1="0" x2="38" y2="108.5" gradientUnits="userSpaceOnUse">
<stop stop-color="#FC0203"/>
<stop offset="1" stop-color="#111111"/>
</linearGradient>
<radialGradient id="paint1_radial_1_404" cx="0" cy="0" r="1" gradientUnits="userSpaceOnUse" gradientTransform="translate(-3.5 7) rotate(39.1554) scale(135.408)">
<stop stop-color="#F9F9F9"/>
<stop offset="1" stop-color="#111111" stop-opacity="0"/>
</radialGradient>
</defs>
</svg>
