<svg width="232" height="57" viewBox="0 0 232 57" fill="none" xmlns="http://www.w3.org/2000/svg">
<g clip-path="url(#clip0_1_311)">
<path d="M203.26 56.22H28.11C12.61 56.22 0 43.61 0 28.11C0 12.61 12.61 0 28.11 0H203.26C218.76 0 231.37 12.61 231.37 28.11C231.37 43.61 218.76 56.22 203.26 56.22ZM28.11 4C14.82 4 4 14.82 4 28.11C4 41.4 14.82 52.22 28.11 52.22H203.26C216.55 52.22 227.37 41.4 227.37 28.11C227.37 14.82 216.55 4 203.26 4H28.11Z" fill="#FC0203"/>
<path d="M203.26 49.72H28.11C16.2 49.72 6.5 40.03 6.5 28.11C6.5 16.19 16.2 6.5 28.11 6.5H203.26C215.17 6.5 224.87 16.19 224.87 28.11C224.87 40.03 215.18 49.72 203.26 49.72ZM28.11 7.5C16.75 7.5 7.5 16.74 7.5 28.11C7.5 39.48 16.74 48.72 28.11 48.72H203.26C214.62 48.72 223.87 39.48 223.87 28.11C223.87 16.74 214.63 7.5 203.26 7.5H28.11Z" fill="#FC0203"/>
<path d="M36.62 13.95H45.81V43.63H36.62V13.95Z" fill="#FC0203"/>
<path d="M66.09 13.95H78.15L82.8 32.01L87.42 13.95H99.47V43.63H91.96V21L86.17 43.63H79.37L73.59 21V43.63H66.08V13.95H66.09Z" fill="#FC0203"/>
<path d="M117.53 33.81L126.26 33.26C126.45 34.68 126.83 35.76 127.41 36.5C128.35 37.7 129.7 38.3 131.46 38.3C132.77 38.3 133.78 37.99 134.49 37.38C135.2 36.77 135.55 36.05 135.55 35.24C135.55 34.43 135.21 33.78 134.54 33.18C133.86 32.57 132.3 32 129.84 31.46C125.82 30.56 122.95 29.35 121.24 27.86C119.51 26.36 118.65 24.45 118.65 22.13C118.65 20.61 119.09 19.16 119.98 17.81C120.86 16.45 122.19 15.39 123.97 14.61C125.74 13.83 128.18 13.45 131.27 13.45C135.06 13.45 137.95 14.16 139.94 15.57C141.93 16.98 143.12 19.22 143.49 22.3L134.85 22.81C134.62 21.47 134.14 20.5 133.4 19.89C132.66 19.28 131.65 18.98 130.35 18.98C129.28 18.98 128.48 19.21 127.94 19.66C127.4 20.11 127.13 20.66 127.13 21.31C127.13 21.78 127.35 22.21 127.8 22.59C128.23 22.98 129.26 23.35 130.88 23.68C134.89 24.54 137.76 25.42 139.49 26.3C141.22 27.18 142.49 28.28 143.28 29.59C144.07 30.9 144.46 32.36 144.46 33.98C144.46 35.88 143.93 37.64 142.88 39.24C141.83 40.85 140.36 42.06 138.47 42.89C136.58 43.72 134.2 44.13 131.32 44.13C126.27 44.13 122.78 43.16 120.83 41.21C118.89 39.27 117.79 36.8 117.53 33.8V33.81Z" fill="#FC0203"/>
<path d="M181.12 38.73H170.71L169.26 43.63H159.9L171.05 13.95H181.05L192.2 43.63H182.6L181.12 38.73ZM179.21 32.31L175.93 21.64L172.69 32.31H179.21Z" fill="#FC0203"/>
<path d="M198.72 35.3699H199.27C201.55 35.3699 203.4 37.2199 203.4 39.4999C203.4 41.7799 201.55 43.6299 199.27 43.6299H198.72C196.44 43.6299 194.59 41.7799 194.59 39.4999C194.59 37.2199 196.44 35.3699 198.72 35.3699Z" fill="#FC0203"/>
<path d="M149.96 35.37H150.51C152.79 35.37 154.64 37.22 154.64 39.5C154.64 41.78 152.79 43.63 150.51 43.63H149.96C147.68 43.63 145.83 41.78 145.83 39.5C145.83 37.22 147.68 35.37 149.96 35.37Z" fill="#FC0203"/>
<path d="M106.22 35.3699H106.77C109.05 35.3699 110.9 37.2199 110.9 39.4999C110.9 41.7799 109.05 43.6299 106.77 43.6299H106.22C103.94 43.6299 102.09 41.7799 102.09 39.4999C102.09 37.2199 103.94 35.3699 106.22 35.3699Z" fill="#FC0203"/>
<path d="M52.5996 35.3699H53.1496C55.4296 35.3699 57.2796 37.2199 57.2796 39.4999C57.2796 41.7799 55.4296 43.6299 53.1496 43.6299H52.5996C50.3196 43.6299 48.4696 41.7799 48.4696 39.4999C48.4696 37.2199 50.3196 35.3699 52.5996 35.3699Z" fill="#FC0203"/>
</g>
<defs>
<clipPath id="clip0_1_311">
<rect width="231.38" height="56.22" fill="white"/>
</clipPath>
</defs>
</svg>
