<svg width="76" height="76" viewBox="0 0 76 76" fill="none" xmlns="http://www.w3.org/2000/svg">
<rect x="0.5" y="0.5" width="75" height="75" rx="15.5" fill="url(#paint0_linear_1_412)"/>
<rect x="0.5" y="0.5" width="75" height="75" rx="15.5" stroke="url(#paint1_radial_1_412)"/>
<path d="M19.6505 63.7403H27.8058C28.5097 63.7403 29.0801 63.1699 29.0801 62.4661V61.7015H52.2718C54.4232 61.7015 57.6238 60.2764 57.6238 56.3496C57.6238 54.4372 56.8624 53.1219 55.8351 52.2719C56.8624 51.4218 57.6238 50.1066 57.6238 48.1942C57.6238 46.2818 56.8624 44.9666 55.8351 44.1166C56.8624 43.2665 57.6238 41.9513 57.6238 40.0389C57.6238 38.1265 56.8624 36.8113 55.8351 35.9612C56.8624 35.1112 57.6238 33.796 57.6238 31.8835C57.6238 27.9567 54.4232 26.5316 52.2718 26.5316H45.3908V19.6505C45.3908 19.5664 45.3828 19.4828 45.3659 19.4002C45.0075 17.6082 44.2947 15.0612 42.2628 13.6386C40.9547 12.7237 39.5202 12.2598 38 12.2598C36.4749 12.2598 35.5978 12.9218 35.1299 13.4778C34.2299 14.546 33.9651 16.1876 34.3405 18.3564C34.6511 20.1423 34.6082 21.8457 34.215 23.4191C33.8606 24.8392 33.1677 26.5316 31.8835 26.5316H29.0801V25.767C29.0801 25.0632 28.5097 24.4928 27.8058 24.4928H19.6505C18.9467 24.4928 18.3762 25.0632 18.3762 25.767V62.4661C18.3762 63.1699 18.9467 63.7403 19.6505 63.7403ZM29.0801 29.0802H31.8835C33.5002 29.0802 35.6456 28.2051 36.6879 24.0373C37.1677 22.117 37.2225 20.0587 36.8512 17.9208C36.6242 16.6067 36.7088 15.5589 37.0801 15.1189C37.1508 15.0338 37.341 14.8083 38 14.8083C38.9876 14.8083 39.9303 15.1174 40.8014 15.7267C41.7591 16.3967 42.4092 17.6859 42.8422 19.779V27.8059C42.8422 28.5097 43.4127 29.0802 44.1165 29.0802H52.2629C52.7328 29.0871 55.0752 29.2544 55.0752 31.8835C55.0752 34.5127 52.7328 34.68 52.2718 34.6869H46.1553C45.4515 34.6869 44.8811 35.2574 44.8811 35.9612C44.8811 36.6651 45.4515 37.2355 46.1553 37.2355H52.2629C52.7328 37.2425 55.0752 37.4097 55.0752 40.0389C55.0752 42.6681 52.7328 42.8353 52.2718 42.8423H46.1553C45.4515 42.8423 44.8811 43.4127 44.8811 44.1166C44.8811 44.8204 45.4515 45.3908 46.1553 45.3908H52.2629C52.7328 45.3978 55.0752 45.565 55.0752 48.1942C55.0752 50.8234 52.7328 50.9907 52.2718 50.9976H46.1553C45.4515 50.9976 44.8811 51.5681 44.8811 52.2719C44.8811 52.9757 45.4515 53.5462 46.1553 53.5462H52.2629C52.7328 53.5531 55.0752 53.7204 55.0752 56.3496C55.0752 58.9787 52.7328 59.146 52.2718 59.153H29.0801V29.0802ZM20.9248 27.0413H26.5316V27.8059V60.4272V61.1918H20.9248V27.0413Z" fill="white"/>
<defs>
<linearGradient id="paint0_linear_1_412" x1="38" y1="0" x2="38" y2="108.5" gradientUnits="userSpaceOnUse">
<stop stop-color="#FC0203"/>
<stop offset="1" stop-color="#111111"/>
</linearGradient>
<radialGradient id="paint1_radial_1_412" cx="0" cy="0" r="1" gradientUnits="userSpaceOnUse" gradientTransform="translate(-3.5 7) rotate(39.1554) scale(135.408)">
<stop stop-color="#F9F9F9"/>
<stop offset="1" stop-color="#111111" stop-opacity="0"/>
</radialGradient>
</defs>
</svg>
