<svg width="76" height="76" viewBox="0 0 76 76" fill="none" xmlns="http://www.w3.org/2000/svg">
<rect x="0.5" y="0.5" width="75" height="75" rx="15.5" fill="url(#paint0_linear_1_420)"/>
<rect x="0.5" y="0.5" width="75" height="75" rx="15.5" stroke="url(#paint1_radial_1_420)"/>
<path d="M37.9989 16.907C43.9109 16.907 49.196 17.8832 53.0126 19.4929C54.9205 20.2976 56.4733 21.2662 57.5526 22.3601C58.6333 23.4554 59.2499 24.6889 59.2499 26.0134C59.2499 28.5363 57.0246 30.7167 53.5438 32.2976V43.7039C57.155 45.3316 59.2499 47.5305 59.2499 49.9871C59.2498 51.3121 58.6333 52.5459 57.5526 53.6414C56.4733 54.7354 54.9204 55.703 53.0126 56.5076C49.196 58.117 43.911 59.0935 37.9989 59.0935C32.0879 59.0935 26.8035 58.117 22.9872 56.5076C21.0794 55.703 19.5264 54.7354 18.4471 53.6414C17.3665 52.546 16.75 51.312 16.7499 49.9871C16.7499 47.5306 18.8448 45.3319 22.4559 43.7019V32.2976C18.9731 30.7168 16.7499 28.5364 16.7499 26.0134C16.7499 24.6883 17.3666 23.4546 18.4471 22.3591C19.5263 21.2651 21.0786 20.2965 22.9862 19.4919C26.8022 17.8826 32.0869 16.907 37.9989 16.907ZM53.5487 49.4714C53.5486 50.472 53.0895 51.4002 52.2938 52.2195C51.4997 53.0371 50.3604 53.7577 48.9657 54.3552C46.1753 55.5507 42.3161 56.2742 38.0038 56.2742C33.6908 56.2742 29.8321 55.5506 27.0419 54.3552C25.6473 53.7577 24.5078 53.0371 23.7137 52.2195C22.9182 51.4002 22.459 50.472 22.4589 49.4714V45.6746C21.2357 46.2963 20.2782 46.9763 19.6151 47.6804C18.8883 48.4521 18.5272 49.2351 18.5272 49.9871C18.5274 50.9161 19.0381 51.8407 20.0223 52.7175C21.0057 53.5936 22.4387 54.3994 24.2196 55.0837C27.7797 56.4518 32.6795 57.3162 38.0018 57.3162H38.0057C43.327 57.3162 48.2266 56.4518 51.787 55.0837C53.5681 54.3994 55.0016 53.5936 55.9852 52.7175C56.9695 51.8407 57.4802 50.9161 57.4803 49.9871C57.4803 49.2364 57.1187 48.4542 56.3915 47.6824C55.7281 46.9783 54.771 46.2972 53.5487 45.6746V49.4714ZM51.7704 48.0339C50.9043 48.7011 49.736 49.2897 48.2948 49.7859C45.474 50.7579 41.8192 51.2898 38.0018 51.2898C35.1828 51.2898 32.2902 50.9868 29.7802 50.3904C27.5267 49.855 25.5572 49.0753 24.2294 48.0466V49.4695C24.2295 50.0106 24.5292 50.5975 25.161 51.1863C25.7909 51.7732 26.7275 52.3394 27.9384 52.8328C30.3586 53.8188 33.8308 54.4968 37.9999 54.4968C42.1687 54.4968 45.6402 53.8187 48.0604 52.8328C49.2714 52.3394 50.2089 51.7733 50.8387 51.1863C51.4703 50.5976 51.7702 50.0106 51.7704 49.4695V48.0339ZM51.7723 42.9099C50.5606 43.8534 48.7841 44.6302 46.619 45.1873C44.1849 45.8135 41.2384 46.1685 38.0038 46.1687V46.1697L38.0028 46.1687L38.0018 46.1697V46.1687C38.0002 46.1687 37.9986 46.1687 37.9969 46.1687L37.995 46.1697V46.1687C34.7619 46.168 31.8177 45.813 29.3856 45.1873C27.2208 44.6302 25.4449 43.8534 24.2333 42.9099V45.1404C24.2391 45.16 24.2458 45.1809 24.2509 45.2029L24.2538 45.2126H24.2528C24.339 45.6656 24.7016 46.1702 25.3778 46.6785C26.0485 47.1825 26.9991 47.668 28.2001 48.0906C30.601 48.9354 33.9677 49.5173 38.0018 49.5173C42.045 49.5173 45.4149 48.9341 47.8153 48.0876C49.0161 47.6642 49.9657 47.1776 50.6346 46.6726C51.3088 46.1636 51.668 45.6585 51.7518 45.2048L51.7538 45.1941H51.7548C51.7598 45.1722 51.7667 45.1518 51.7723 45.1335V42.9099ZM51.7723 37.7888C50.5606 38.7324 48.7842 39.5101 46.619 40.0671C44.1845 40.6935 41.2372 41.0495 38.0018 41.0496C34.7654 41.0496 31.818 40.6934 29.3837 40.0671C27.2191 39.5102 25.4429 38.7332 24.2313 37.7898V39.8777C24.2313 40.3319 24.5243 40.8481 25.1698 41.3816C25.8095 41.9101 26.7589 42.4243 27.9794 42.8738C30.4185 43.772 33.8938 44.3972 38.0018 44.3972C42.1095 44.3972 45.5842 43.7719 48.0233 42.8738C49.244 42.4243 50.1942 41.9102 50.8339 41.3816C51.4794 40.8481 51.7723 40.3319 51.7723 39.8777V37.7888ZM51.7704 33.0125C48.5533 34.1645 44.4942 34.9095 39.9901 35.0798H39.9803C39.9767 35.0798 39.9716 35.0802 39.9598 35.0808C39.9513 35.0812 39.9377 35.0806 39.9227 35.0808L39.9237 35.0818C39.6283 35.0926 39.3288 35.1006 39.0292 35.1072C38.9918 35.11 38.9539 35.1101 38.9276 35.1101C38.6207 35.1167 38.3119 35.1199 38.0018 35.1199C37.6905 35.1199 37.3816 35.1155 37.077 35.1111L37.0692 35.1101H37.0614C37.0442 35.1088 37.0233 35.1082 36.993 35.1082H36.9872C36.6812 35.1016 36.3796 35.0928 36.078 35.0818V35.0808C36.0631 35.0806 36.0492 35.0812 36.0409 35.0808C36.0292 35.0802 36.024 35.0798 36.0204 35.0798H36.0096C31.5054 34.9095 27.4463 34.1645 24.2294 33.0125V34.7556C24.2295 35.2097 24.5224 35.7262 25.1678 36.2595C25.8075 36.788 26.7571 37.3013 27.9774 37.7507C30.4166 38.6489 33.8919 39.2751 37.9999 39.2751C42.1077 39.2751 45.5822 38.6488 48.0214 37.7507C49.2419 37.3013 50.1922 36.7881 50.8319 36.2595C51.4773 35.7262 51.7703 35.2097 51.7704 34.7556V33.0125ZM37.9989 18.6843C32.6781 18.6844 27.7789 19.5479 24.2186 20.9158C22.4377 21.6001 21.004 22.406 20.0204 23.282C19.0358 24.159 18.5253 25.0842 18.5253 26.0134H18.5243C18.5251 26.8998 18.9905 27.7811 19.8885 28.6218C20.6747 29.3578 21.7773 30.0473 23.1385 30.6599L23.7382 30.9177L23.7401 30.9187L24.243 31.1189V31.1199C27.0496 32.1952 30.6825 32.9567 34.6971 33.2312L35.5048 33.2791L35.5126 33.28L35.5419 33.282C35.5517 33.2824 35.5652 33.2829 35.58 33.2839H35.5809C35.7913 33.2927 36.004 33.3015 36.2167 33.3103C36.4322 33.319 36.6458 33.3255 36.8612 33.3298H36.8651C36.8921 33.3308 36.9197 33.3312 36.9491 33.3318C36.9777 33.3323 37.0088 33.3326 37.0409 33.3337H37.0399C37.3589 33.3381 37.6807 33.3425 38.0018 33.3425C38.3239 33.3425 38.6431 33.3402 38.9618 33.3337L39.0536 33.3318C39.083 33.3312 39.1106 33.3308 39.1376 33.3298H39.1415C39.357 33.3255 39.5696 33.317 39.788 33.3103L40.4169 33.2839C40.4331 33.2828 40.4482 33.2824 40.4589 33.282C40.4729 33.2814 40.481 33.2806 40.4882 33.28L40.496 33.2791C44.83 33.0564 48.7606 32.2665 51.7518 31.1218L52.2665 30.9177C53.903 30.2434 55.2138 29.4636 56.1112 28.6228C57.0089 27.7816 57.4735 26.8995 57.4735 26.0134C57.4735 25.0842 56.9637 24.1589 55.9794 23.282C54.996 22.4059 53.5621 21.6001 51.7811 20.9158C48.2211 19.5478 43.3211 18.6843 37.9989 18.6843ZM38.0018 22.5994C39.6963 22.5994 41.4546 22.8801 42.7987 23.4294C44.1213 23.97 45.149 24.82 45.1493 26.0125C45.1493 27.2052 44.1215 28.0558 42.7987 28.5964C41.4546 29.1458 39.6964 29.4265 38.0018 29.4265C36.3073 29.4265 34.5491 29.1458 33.205 28.5964C31.8822 28.0558 30.8544 27.2052 30.8544 26.0125C30.8546 24.82 31.8824 23.97 33.205 23.4294C34.5491 22.8801 36.3073 22.5994 38.0018 22.5994ZM38.0018 24.3738C36.3105 24.3738 34.9362 24.6503 33.993 25.0134C33.5203 25.1954 33.165 25.395 32.9335 25.5857C32.6918 25.7847 32.629 25.935 32.6288 26.0125C32.6288 26.0898 32.6913 26.2408 32.9335 26.4402C33.1651 26.6309 33.5203 26.8305 33.993 27.0125C34.9362 27.3755 36.3105 27.6521 38.0018 27.6521C39.6932 27.6521 41.0675 27.3755 42.0106 27.0125C42.4833 26.8305 42.8386 26.6309 43.0702 26.4402C43.3124 26.2408 43.3749 26.0898 43.3749 26.0125C43.3746 25.935 43.3119 25.7847 43.0702 25.5857C42.8386 25.395 42.4833 25.1954 42.0106 25.0134C41.0674 24.6503 39.6931 24.3738 38.0018 24.3738Z" fill="white" stroke="white" stroke-width="0.5"/>
<defs>
<linearGradient id="paint0_linear_1_420" x1="38" y1="0" x2="38" y2="108.5" gradientUnits="userSpaceOnUse">
<stop stop-color="#FC0203"/>
<stop offset="1" stop-color="#111111"/>
</linearGradient>
<radialGradient id="paint1_radial_1_420" cx="0" cy="0" r="1" gradientUnits="userSpaceOnUse" gradientTransform="translate(-3.5 7) rotate(39.1554) scale(135.408)">
<stop stop-color="#F9F9F9"/>
<stop offset="1" stop-color="#111111" stop-opacity="0"/>
</radialGradient>
</defs>
</svg>
